<?xml version="1.0" encoding="iso-8859-1"?>
<!-- Generator: Adobe Illustrator 19.0.0, SVG Export Plug-In . SVG Version: 6.00 Build 0)  -->
<svg version="1.1" id="Capa_1" xmlns="http://www.w3.org/2000/svg" xmlns:xlink="http://www.w3.org/1999/xlink" x="0px" y="0px"
	 viewBox="0 0 480 480" style="enable-background:new 0 0 480 480;" xml:space="preserve">
<path style="fill:#F2CBA7;" d="M350.148,289.32L332.004,312h84c11.046,0,20,8.954,20,20s-8.954,20-20,20c11.046,0,20,8.954,20,20
	s-8.954,20-20,20c11.046,0,20,8.954,20,20s-8.954,20-20,20c11.046,0,20,8.954,20,20s-8.954,20-20,20h-180l-48-16h-8V336h56
	l82.84-75.944c7.625-6.991,19.148-7.559,27.424-1.352c9.493,7.122,11.415,20.591,4.292,30.084
	C350.425,288.967,350.288,289.145,350.148,289.32z"/>
<g>
	<circle style="fill:#FFD33F;" cx="332.004" cy="56" r="48"/>
	<ellipse style="fill:#FFD33F;" cx="332.004" cy="216" rx="48" ry="16"/>
</g>
<ellipse style="fill:#EAB42D;" cx="332.004" cy="152" rx="48" ry="24"/>
<g>
	<path style="fill:#E1B494;" d="M420.004,356h-24c-2.209,0-4-1.791-4-4s1.791-4,4-4h24c2.209,0,4,1.791,4,4S422.213,356,420.004,356
		z"/>
	<path style="fill:#E1B494;" d="M420.004,396h-24c-2.209,0-4-1.791-4-4s1.791-4,4-4h24c2.209,0,4,1.791,4,4S422.213,396,420.004,396
		z"/>
	<path style="fill:#E1B494;" d="M420.004,436h-24c-2.209,0-4-1.791-4-4s1.791-4,4-4h24c2.209,0,4,1.791,4,4S422.213,436,420.004,436
		z"/>
</g>
<path style="fill:#EC4B97;" d="M44.004,336.008h144V472h-144V336.008z"/>
<path d="M44.004,480h144c4.418,0,8-3.582,8-8v-4.896l37.472,12.488c0.815,0.271,1.669,0.409,2.528,0.408h180
	c15.464-0.015,27.987-12.564,27.972-28.028c-0.008-7.515-3.036-14.712-8.404-19.972c11.046-10.785,11.257-28.482,0.473-39.527
	c-0.156-0.159-0.313-0.317-0.473-0.473c11.046-10.785,11.257-28.482,0.473-39.527c-0.156-0.159-0.313-0.317-0.473-0.473
	c11.046-10.823,11.227-28.55,0.404-39.596c-5.26-5.368-12.457-8.397-19.972-8.404h-67.36l7.752-9.688
	c10.193-12.702,8.159-31.261-4.543-41.454c-11.366-9.121-27.69-8.571-38.417,1.294L232.892,328H44.004c-4.418,0-8,3.582-8,8v136
	C36.004,476.418,39.585,480,44.004,480L44.004,480z M236.004,344c2.002,0,3.932-0.751,5.408-2.104l82.84-75.944
	c5.436-5.093,13.972-4.816,19.065,0.62c4.629,4.94,4.878,12.547,0.583,17.78l-18.144,22.68c-2.744,3.463-2.161,8.495,1.302,11.238
	c1.408,1.115,3.15,1.724,4.946,1.729h84c6.627,0,12,5.373,12,12s-5.373,12-12,12h-20c-4.418,0-8,3.582-8,8s3.582,8,8,8h20
	c6.627,0,12,5.373,12,12s-5.373,12-12,12h-20c-4.418,0-8,3.582-8,8s3.582,8,8,8h20c6.627,0,12,5.373,12,12s-5.373,12-12,12h-20
	c-4.418,0-8,3.582-8,8s3.582,8,8,8h20c6.627,0,12,5.373,12,12s-5.373,12-12,12H237.3l-41.296-13.768V344L236.004,344z M52.004,344
	h128v120h-128V344z"/>
<path d="M332.004,112c30.928,0,56-25.072,56-56s-25.072-56-56-56s-56,25.072-56,56C276.039,86.913,301.09,111.965,332.004,112z
	 M332.004,16c22.091,0,40,17.909,40,40s-17.909,40-40,40s-40-17.909-40-40C292.03,33.92,309.923,16.026,332.004,16z"/>
<path d="M332.004,240c27.872,0,56-7.424,56-24s-28.128-24-56-24s-56,7.424-56,24S304.132,240,332.004,240z M332.004,208
	c22.112,0,35.512,5.04,39.272,8c-3.76,2.96-17.16,8-39.272,8s-35.512-5.04-39.272-8C296.492,213.04,309.892,208,332.004,208z"/>
<path d="M332.004,184c31.92,0,56-13.76,56-32s-24.08-32-56-32s-56,13.76-56,32S300.084,184,332.004,184z M332.004,136
	c24.416,0,40,9.48,40,16s-15.584,16-40,16s-40-9.48-40-16S307.588,136,332.004,136z"/>
<path d="M163.364,436.96c-0.178-0.508-0.42-0.992-0.72-1.44l-0.96-1.2c-3.208-2.96-8.152-2.96-11.36,0
	c-0.344,0.38-0.665,0.781-0.96,1.2c-0.303,0.446-0.545,0.93-0.72,1.44c-0.231,0.453-0.393,0.939-0.48,1.44
	c-0.093,0.529-0.146,1.063-0.16,1.6c0,4.418,3.582,8,8,8s8-3.582,8-8c-0.012-0.537-0.069-1.072-0.168-1.6
	C163.756,437.898,163.596,437.412,163.364,436.96L163.364,436.96z"/>
<g>
</g>
<g>
</g>
<g>
</g>
<g>
</g>
<g>
</g>
<g>
</g>
<g>
</g>
<g>
</g>
<g>
</g>
<g>
</g>
<g>
</g>
<g>
</g>
<g>
</g>
<g>
</g>
<g>
</g>
</svg>
