<svg height="512pt" viewBox="0 0 512 512" width="512pt" xmlns="http://www.w3.org/2000/svg"><path d="m10 462h492v40h-492zm0 0" fill="#d3d7df"/><path d="m46 390h72v72h-72zm0 0" fill="#d8ec84"/><path d="m161.667969 327h72v135h-72zm0 0" fill="#b0e7f8"/><path d="m278 207.667969h72v254.332031h-72zm0 0" fill="#ffcb7c"/><path d="m394 132.332031h72v329.667969h-72zm0 0" fill="#f5737f"/><path d="m502 452h-26v-109.832031c0-5.523438-4.476562-10-10-10s-10 4.476562-10 10v109.832031h-52v-309.667969h52v109.832031c0 5.523438 4.476562 10 10 10s10-4.476562 10-10v-119.832031c0-5.523437-4.476562-10-10-10h-72c-5.523438 0-10 4.476563-10 10v319.667969h-24v-244.332031c0-5.523438-4.476562-10-10-10h-72c-5.523438 0-10 4.476562-10 10v244.332031h-24.332031v-125c0-5.523438-4.476563-10-10-10h-72c-5.523438 0-10 4.476562-10 10v125h-23.667969v-62c0-5.523438-4.476562-10-10-10h-72c-5.523438 0-10 4.476562-10 10v62h-26c-5.523438 0-10 4.476562-10 10v40c0 5.523438 4.476562 10 10 10h492c5.523438 0 10-4.476562 10-10v-40c0-5.523438-4.476562-10-10-10zm-214-234.332031h52v234.332031h-52zm-116.332031 119.332031h52v115h-52zm-115.667969 63h52v52h-52zm436 92h-472v-20h472zm0 0"/><path d="m46 180.160156h43.070312c39.847657 0 79.753907-4.480468 118.609376-13.316406 93.640624-21.292969 179.367187-67.152344 248.945312-132.984375v5.679687c0 5.523438 4.476562 10 10 10s10-4.476562 10-10v-29.539062c0-5.523438-4.476562-10-10-10h-29.539062c-5.523438 0-10 4.476562-10 10s4.476562 10 10 10h5.09375c-66.855469 63.011719-149.113282 106.917969-238.933594 127.34375-37.402344 8.503906-75.816406 12.816406-114.175782 12.816406h-43.070312c-5.523438 0-10 4.476563-10 10 0 5.523438 4.476562 10 10 10zm0 0"/><path d="m466 287.171875c-2.628906 0-5.210938 1.058594-7.070312 2.929687-1.859376 1.859376-2.929688 4.429688-2.929688 7.070313 0 2.628906 1.070312 5.207031 2.929688 7.066406 1.859374 1.863281 4.441406 2.933594 7.070312 2.933594s5.210938-1.070313 7.070312-2.933594c1.859376-1.859375 2.929688-4.4375 2.929688-7.066406 0-2.640625-1.070312-5.210937-2.929688-7.070313-1.859374-1.871093-4.441406-2.929687-7.070312-2.929687zm0 0"/></svg>