<svg height="512pt" viewBox="0 0 512.001 512" width="512pt" xmlns="http://www.w3.org/2000/svg"><path d="m341.09375 306.933594-136.039062-136.039063c-6.261719-6.261719-6.261719-16.410156 0-22.671875l136.039062-136.039062c6.261719-6.261719 16.410156-6.261719 22.671875 0l136.039063 136.039062c6.261718 6.261719 6.261718 16.410156 0 22.671875l-136.039063 136.039063c-6.261719 6.261718-16.410156 6.261718-22.671875 0zm0 0" fill="#f9eac7"/><path d="m334.453125 125.550781c0 8.851563-7.179687 16.03125-16.03125 16.03125-8.855469 0-16.035156-7.179687-16.035156-16.03125 0-8.855469 7.179687-16.03125 16.035156-16.03125 8.851563 0 16.03125 7.175781 16.03125 16.03125zm0 0" fill="#ff8086"/><path d="m402.472656 193.570312c0 8.851563-7.179687 16.03125-16.035156 16.03125-8.851562 0-16.03125-7.179687-16.03125-16.03125 0-8.855468 7.179688-16.035156 16.03125-16.035156 8.855469 0 16.035156 7.179688 16.035156 16.035156zm0 0" fill="#ff8086"/><path d="m215.917969 504.015625h-192.386719c-8.851562 0-16.03125-7.175781-16.03125-16.03125v-192.386719c0-8.855468 7.179688-16.03125 16.03125-16.03125h192.386719c8.855469 0 16.03125 7.175782 16.03125 16.03125v192.386719c.003906 8.855469-7.175781 16.03125-16.03125 16.03125zm0 0" fill="#ff8086"/><g fill="#f9eac7"><path d="m79.644531 335.679688c0 8.851562-7.175781 16.03125-16.03125 16.03125s-16.03125-7.179688-16.03125-16.03125c0-8.855469 7.175781-16.03125 16.03125-16.03125s16.03125 7.175781 16.03125 16.03125zm0 0"/><path d="m191.871094 335.679688c0 8.851562-7.179688 16.03125-16.03125 16.03125-8.855469 0-16.03125-7.179688-16.03125-16.03125 0-8.855469 7.175781-16.03125 16.03125-16.03125 8.851562 0 16.03125 7.175781 16.03125 16.03125zm0 0"/><path d="m79.644531 447.902344c0 8.855468-7.175781 16.035156-16.03125 16.035156s-16.03125-7.179688-16.03125-16.035156c0-8.851563 7.175781-16.03125 16.03125-16.03125s16.03125 7.179687 16.03125 16.03125zm0 0"/><path d="m191.871094 447.902344c0 8.855468-7.179688 16.035156-16.03125 16.035156-8.855469 0-16.03125-7.179688-16.03125-16.035156 0-8.851563 7.175781-16.03125 16.03125-16.03125 8.851562 0 16.03125 7.179687 16.03125 16.03125zm0 0"/><path d="m135.757812 391.792969c0 8.851562-7.175781 16.03125-16.03125 16.03125-8.855468 0-16.03125-7.179688-16.03125-16.03125 0-8.855469 7.175782-16.035157 16.03125-16.035157 8.855469 0 16.03125 7.179688 16.03125 16.035157zm0 0"/></g><path d="m31.546875 447.902344v-168.335938h-8.015625c-8.851562 0-16.03125 7.175782-16.03125 16.03125v192.386719c0 8.855469 7.179688 16.03125 16.03125 16.03125h192.386719c8.855469 0 16.03125-7.175781 16.03125-16.03125v-8.015625h-168.335938c-17.679687 0-32.066406-14.382812-32.066406-32.066406zm0 0" fill="#e5646e"/><path d="m369.433594 17.851562-5.667969-5.667968c-6.261719-6.261719-16.414063-6.261719-22.671875 0l-136.039062 136.039062c-6.261719 6.261719-6.261719 16.410156 0 22.671875l136.039062 136.039063c6.261719 6.261718 16.410156 6.261718 22.671875 0l5.667969-5.667969-119.03125-119.03125c-12.503906-12.503906-12.503906-32.847656 0-45.347656zm0 0" fill="#f4dbb3"/><path d="m215.917969 272.066406h-192.386719c-12.972656 0-23.53125 10.554688-23.53125 23.53125v144.289063c0 4.144531 3.359375 7.5 7.5 7.5s7.5-3.355469 7.5-7.5v-144.289063c0-4.703125 3.828125-8.53125 8.53125-8.53125h192.386719c4.707031 0 8.53125 3.828125 8.53125 8.53125v192.386719c0 4.707031-3.828125 8.53125-8.53125 8.53125h-192.386719c-4.703125 0-8.53125-3.824219-8.53125-8.53125v-16.03125c0-4.140625-3.359375-7.5-7.5-7.5s-7.5 3.359375-7.5 7.5v16.03125c0 12.976563 10.558594 23.53125 23.53125 23.53125h192.386719c12.976562 0 23.53125-10.554687 23.53125-23.53125v-192.386719c.003906-12.976562-10.554688-23.53125-23.53125-23.53125zm0 0"/><path d="m143.257812 391.789062c0-12.972656-10.558593-23.53125-23.53125-23.53125-12.976562 0-23.535156 10.558594-23.535156 23.53125 0 12.976563 10.558594 23.535157 23.535156 23.535157 12.976563 0 23.53125-10.558594 23.53125-23.535157zm-32.066406 0c0-4.703124 3.828125-8.53125 8.535156-8.53125 4.703126 0 8.53125 3.828126 8.53125 8.53125 0 4.707032-3.828124 8.535157-8.53125 8.535157-4.707031 0-8.535156-3.828125-8.535156-8.535157zm0 0"/><path d="m63.613281 359.210938c12.976563 0 23.53125-10.558594 23.53125-23.53125 0-12.976563-10.554687-23.53125-23.53125-23.53125-12.976562 0-23.53125 10.554687-23.53125 23.53125 0 12.972656 10.554688 23.53125 23.53125 23.53125zm0-32.066407c4.703125 0 8.53125 3.828125 8.53125 8.53125 0 4.707031-3.828125 8.535157-8.53125 8.535157s-8.53125-3.828126-8.53125-8.535157c0-4.703125 3.824219-8.53125 8.53125-8.53125zm0 0"/><path d="m63.613281 471.4375c12.976563 0 23.53125-10.558594 23.53125-23.53125 0-12.976562-10.554687-23.535156-23.53125-23.535156-12.976562 0-23.53125 10.558594-23.53125 23.535156 0 12.972656 10.554688 23.53125 23.53125 23.53125zm0-32.066406c4.703125 0 8.53125 3.828125 8.53125 8.535156 0 4.703125-3.828125 8.53125-8.53125 8.53125s-8.53125-3.828125-8.53125-8.53125c0-4.707031 3.824219-8.535156 8.53125-8.535156zm0 0"/><path d="m175.839844 359.210938c12.976562 0 23.53125-10.558594 23.53125-23.53125 0-12.976563-10.558594-23.53125-23.53125-23.53125-12.976563 0-23.53125 10.554687-23.53125 23.53125 0 12.972656 10.554687 23.53125 23.53125 23.53125zm0-32.066407c4.703125 0 8.53125 3.828125 8.53125 8.53125 0 4.707031-3.828125 8.535157-8.53125 8.535157s-8.53125-3.828126-8.53125-8.535157c0-4.703125 3.824218-8.53125 8.53125-8.53125zm0 0"/><path d="m175.839844 471.4375c12.976562 0 23.53125-10.558594 23.53125-23.53125 0-12.976562-10.558594-23.535156-23.53125-23.535156-12.976563 0-23.53125 10.558594-23.53125 23.535156 0 12.972656 10.554687 23.53125 23.53125 23.53125zm0-32.066406c4.703125 0 8.53125 3.828125 8.53125 8.535156 0 4.703125-3.828125 8.53125-8.53125 8.53125s-8.53125-3.828125-8.53125-8.53125c0-4.707031 3.824218-8.535156 8.53125-8.535156zm0 0"/><path d="m505.105469 142.917969-136.035157-136.039063c-9.175781-9.171875-24.105468-9.171875-33.28125 0l-13.03125 13.035156c-2.929687 2.929688-2.929687 7.679688 0 10.605469 2.925782 2.929688 7.675782 2.929688 10.605469 0l13.03125-13.03125c3.328125-3.328125 8.742188-3.328125 12.066407 0l136.039062 136.039063c3.328125 3.324218 3.328125 8.738281 0 12.066406l-136.035156 136.035156c-3.328125 3.328125-8.742188 3.328125-12.070313 0l-136.035156-136.035156c-3.328125-3.328125-3.328125-8.742188 0-12.066406l100.082031-100.085938c2.929688-2.929687 2.929688-7.675781 0-10.605468-2.929687-2.929688-7.679687-2.929688-10.605468 0l-100.085938 100.082031c-9.171875 9.175781-9.171875 24.105469 0 33.28125l136.039062 136.039062c4.445313 4.445313 10.355469 6.890625 16.640626 6.890625 6.285156 0 12.195312-2.445312 16.640624-6.890625l136.039063-136.039062c4.445313-4.445313 6.890625-10.355469 6.890625-16.640625s-2.449219-12.195313-6.894531-16.640625zm0 0"/><path d="m294.886719 125.550781c0 6.285157 2.449219 12.195313 6.894531 16.640625 4.445312 4.441406 10.351562 6.890625 16.640625 6.890625 6.285156 0 12.191406-2.449219 16.636719-6.890625 4.445312-4.445312 6.894531-10.355468 6.894531-16.640625 0-6.285156-2.449219-12.195312-6.890625-16.640625-4.445312-4.445312-10.355469-6.890625-16.640625-6.890625s-12.195313 2.445313-16.640625 6.890625c-4.445312 4.445313-6.894531 10.351563-6.894531 16.640625zm17.5-6.035156c1.609375-1.609375 3.753906-2.496094 6.035156-2.496094 2.277344 0 4.417969.886719 6.03125 2.496094 1.613281 1.613281 2.5 3.753906 2.5 6.035156 0 2.277344-.886719 4.417969-2.5 6.03125s-3.753906 2.5-6.035156 2.5c-2.277344 0-4.421875-.886719-6.03125-2.5-1.613281-1.613281-2.5-3.753906-2.5-6.035156 0-2.277344.886719-4.417969 2.5-6.03125zm0 0"/><path d="m403.078125 210.207031c4.445313-4.445312 6.894531-10.351562 6.894531-16.636719 0-6.289062-2.449218-12.195312-6.894531-16.640624-4.441406-4.445313-10.351563-6.894532-16.636719-6.894532-6.289062 0-12.195312 2.449219-16.640625 6.894532-9.175781 9.175781-9.175781 24.101562 0 33.277343 4.445313 4.445313 10.351563 6.894531 16.640625 6.894531 6.285156 0 12.191406-2.449218 16.636719-6.894531zm-22.671875-22.671875c1.613281-1.609375 3.753906-2.5 6.03125-2.5 2.28125 0 4.421875.886719 6.035156 2.5 1.613282 1.613282 2.5 3.753906 2.5 6.035156 0 2.277344-.886718 4.417969-2.5 6.03125-1.613281 1.613282-3.753906 2.5-6.035156 2.5-2.277344 0-4.421875-.890624-6.03125-2.5-3.328125-3.324218-3.328125-8.738281 0-12.066406zm0 0"/></svg>